<svg viewBox="0 0 22 22" fill="none" xmlns="http://www.w3.org/2000/svg"><path d="M11 19c-.26 0-.5-.1-.7-.26-.72-.64-1.42-1.23-2.04-1.76a38.05 38.05 0 0 1-4.47-4.2 6.69 6.69 0 0 1-1.79-4.37 5.62 5.62 0 0 1 1.43-3.84 4.84 4.84 0 0 1 3.6-1.57c1.03 0 2.02.34 2.83.98.43.34.82.74 1.14 1.19.32-.45.7-.85 1.14-1.2.8-.63 1.8-.97 2.83-.97a4.84 4.84 0 0 1 3.6 1.57 5.61 5.61 0 0 1 1.43 3.84 6.69 6.69 0 0 1-1.78 4.38 38.04 38.04 0 0 1-4.47 4.19c-.62.52-1.32 1.12-2.05 1.76-.2.17-.44.26-.7.26Z" stroke="#000" stroke-width="1.2"/></svg>