<svg viewBox="0 0 131 26" fill="none" xmlns="http://www.w3.org/2000/svg"><path d="M17.55 16.8a6.26 6.26 0 0 1-6.15 4.5c-3.93 0-6.9-3-6.9-7.8s2.97-7.8 6.9-7.8a6.4 6.4 0 0 1 6.15 4.35h3.3a9.48 9.48 0 0 0-9.45-7.35c-5.52 0-10.05 4.35-10.05 10.8 0 6.45 4.53 10.8 10.05 10.8 5.67 0 8.73-4.2 9.45-7.5h-3.3Zm15.76 7.5c5.52 0 10.05-4.35 10.05-10.8 0-6.45-4.53-10.8-10.05-10.8-5.52 0-10.05 4.35-10.05 10.8 0 6.45 4.53 10.8 10.05 10.8Zm0-18.6c3.93 0 6.9 3 6.9 7.8s-2.97 7.8-6.9 7.8-6.9-3-6.9-7.8 2.97-7.8 6.9-7.8Zm13.65 18.3h13.35v-3h-10.2v-18h-3.15v21Zm24.14.3c5.53 0 10.06-4.35 10.06-10.8 0-6.45-4.53-10.8-10.05-10.8-5.52 0-10.05 4.35-10.05 10.8 0 6.45 4.53 10.8 10.05 10.8Zm0-18.6c3.94 0 6.9 3 6.9 7.8s-2.96 7.8-6.9 7.8c-3.92 0-6.9-3-6.9-7.8s2.98-7.8 6.9-7.8Zm13.65 18.3h3.15v-7.5h1.5l7.5 7.5h4.05l-7.5-7.5h.75c3.45 0 6.15-2.67 6.15-6.75s-2.7-6.75-6.15-6.75h-9.45v21Zm3.15-10.5v-7.5h6.15c1.68 0 3.15 1.5 3.15 3.75s-1.47 3.75-3.15 3.75h-6.15Zm15.31 4.05c0 3.75 3 6.75 8.25 6.75s7.95-2.7 7.95-6.15c0-3.33-1.92-5.1-6.15-5.85l-3.3-.6c-2.28-.45-3.15-1.5-3.15-2.85 0-1.68 1.5-3.15 4.35-3.15 3 0 4.8 1.8 4.8 3.75h3.15c0-3.75-2.7-6.75-7.95-6.75-4.65 0-7.5 2.7-7.5 6.15 0 2.88 1.62 4.95 4.95 5.55l4.05.75c2.4.45 3.6 1.47 3.6 3 0 1.8-1.35 3.15-4.8 3.15-3.12 0-5.1-1.8-5.1-3.75h-3.15Z" fill="#1F2020"/><circle cx="127" cy="6" r="4" fill="#1F2020"/></svg>