<svg viewBox="0 0 99 21" fill="none" xmlns="http://www.w3.org/2000/svg"><path d="M12.87 12.72a4.59 4.59 0 0 1-4.51 3.3c-2.88 0-5.06-2.2-5.06-5.72 0-3.52 2.18-5.72 5.06-5.72a4.7 4.7 0 0 1 4.51 3.19h2.42a6.95 6.95 0 0 0-6.93-5.39c-4.05 0-7.37 3.19-7.37 7.92s3.32 7.92 7.37 7.92a7 7 0 0 0 6.93-5.5h-2.42Zm11.56 5.5c4.05 0 7.37-3.19 7.37-7.92s-3.32-7.92-7.37-7.92c-4.05 0-7.37 3.19-7.37 7.92s3.32 7.92 7.37 7.92Zm0-13.64c2.88 0 5.06 2.2 5.06 5.72 0 3.52-2.18 5.72-5.06 5.72-2.88 0-5.06-2.2-5.06-5.72 0-3.52 2.18-5.72 5.06-5.72Zm10 13.42h9.8v-2.2h-7.48v-13.2h-2.31v15.4Zm17.72.22c4.04 0 7.37-3.19 7.37-7.92s-3.33-7.92-7.37-7.92c-4.05 0-7.37 3.19-7.37 7.92s3.32 7.92 7.37 7.92Zm0-13.64c2.88 0 5.06 2.2 5.06 5.72 0 3.52-2.18 5.72-5.06 5.72-2.89 0-5.06-2.2-5.06-5.72 0-3.52 2.17-5.72 5.06-5.72Zm10 13.42h2.31v-5.5h1.1l5.5 5.5h2.97l-5.5-5.5h.55c2.53 0 4.51-1.96 4.51-4.95 0-3-1.98-4.95-4.51-4.95h-6.93v15.4Zm2.31-7.7v-5.5h4.51c1.23 0 2.31 1.1 2.31 2.75s-1.08 2.75-2.31 2.75h-4.51Zm11.23 2.97c0 2.75 2.2 4.95 6.05 4.95 3.85 0 5.83-1.98 5.83-4.51 0-2.44-1.4-3.74-4.51-4.29l-2.42-.44c-1.67-.33-2.31-1.1-2.31-2.09 0-1.23 1.1-2.31 3.19-2.31 2.2 0 3.52 1.32 3.52 2.75h2.3c0-2.75-1.97-4.95-5.82-4.95-3.41 0-5.5 1.98-5.5 4.51 0 2.11 1.19 3.63 3.63 4.07l2.97.55c1.76.33 2.64 1.08 2.64 2.2 0 1.32-1 2.31-3.52 2.31-2.29 0-3.74-1.32-3.74-2.75h-2.31Z" fill="#1F2020"/><circle cx="95" cy="6" r="4" fill="#1F2020"/></svg>